<svg xmlns="http://www.w3.org/2000/svg" width="430" height="430" style="width:100%;height:100%;transform:translate3d(0,0,0);content-visibility:visible" viewBox="0 0 430 430"><defs><clipPath id="q"><path d="M0 0h430v430H0z"/></clipPath><clipPath id="J"><path d="M0 0h430v430H0z"/></clipPath><clipPath id="aa"><path d="M0 0h273v273H0z"/></clipPath><clipPath id="m"><path d="M0 0h273v273H0z"/></clipPath><clipPath id="Y"><path d="M0 0h273v273H0z"/></clipPath><clipPath id="K"><path d="M0 0h430v430H0z"/></clipPath><clipPath id="W"><path d="M0 0h273v273H0z"/></clipPath><clipPath id="V"><path d="M0 0h273v273H0z"/></clipPath><clipPath id="L"><path d="M0 0h430v430H0z"/></clipPath><clipPath id="U"><path d="M0 0h273v273H0z"/></clipPath><clipPath id="T"><path d="M0 0h273v273H0z"/></clipPath><clipPath id="M"><path d="M0 0h430v430H0z"/></clipPath><clipPath id="S"><path d="M0 0h273v273H0z"/></clipPath><clipPath id="R"><path d="M0 0h273v273H0z"/></clipPath><clipPath id="Q"><path d="M0 0h273v273H0z"/></clipPath><clipPath id="P"><path d="M0 0h273v273H0z"/></clipPath><clipPath id="O"><path d="M0 0h273v273H0z"/></clipPath><clipPath id="N"><path d="M0 0h273v273H0z"/></clipPath><clipPath id="E"><path d="M0 0h430v430H0z"/></clipPath><clipPath id="I"><path d="M0 0h273v273H0z"/></clipPath><clipPath id="n"><path d="M0 0h430v430H0z"/></clipPath><clipPath id="F"><path d="M0 0h430v430H0z"/></clipPath><clipPath id="w"><path d="M0 0h430v430H0z"/></clipPath><clipPath id="D"><path d="M0 0h273v273H0z"/></clipPath><clipPath id="o"><path d="M0 0h273v273H0z"/></clipPath><clipPath id="B"><path d="M0 0h273v273H0z"/></clipPath><clipPath id="z"><path d="M0 0h273v273H0z"/></clipPath><clipPath id="r"><path d="M0 0h430v430H0z"/></clipPath><clipPath id="v"><path d="M0 0h273v273H0z"/></clipPath><clipPath id="p"><path d="M0 0h273v273H0z"/></clipPath><clipPath id="t"><path d="M0 0h273v273H0z"/></clipPath><mask id="Z" mask-type="alpha"><use xmlns:ns1="http://www.w3.org/1999/xlink" ns1:href="#a"/></mask><mask id="X" mask-type="alpha"><use xmlns:ns2="http://www.w3.org/1999/xlink" ns2:href="#b"/></mask><mask id="H" mask-type="alpha"><g filter="url(#c)"><path fill="#fff" d="M0 0h430v430H0z" opacity="0"/><use xmlns:ns3="http://www.w3.org/1999/xlink" ns3:href="#d"/></g></mask><mask id="G" mask-type="alpha"><use xmlns:ns4="http://www.w3.org/1999/xlink" ns4:href="#e"/></mask><mask id="C" mask-type="alpha"><use xmlns:ns5="http://www.w3.org/1999/xlink" ns5:href="#f"/></mask><mask id="A" mask-type="alpha"><use xmlns:ns6="http://www.w3.org/1999/xlink" ns6:href="#g"/></mask><mask id="y" mask-type="alpha"><g filter="url(#h)"><path fill="#fff" d="M0 0h430v430H0z" opacity="0"/><use xmlns:ns7="http://www.w3.org/1999/xlink" ns7:href="#i"/></g></mask><mask id="x" mask-type="alpha"><use xmlns:ns8="http://www.w3.org/1999/xlink" ns8:href="#j"/></mask><mask id="u" mask-type="alpha"><use xmlns:ns9="http://www.w3.org/1999/xlink" ns9:href="#k"/></mask><mask id="s" mask-type="alpha"><use xmlns:ns10="http://www.w3.org/1999/xlink" ns10:href="#l"/></mask><g id="a" clip-path="url(#m)" style="display:none"><path class="primary"/><path class="primary" style="mix-blend-mode:multiply"/></g><g id="b" style="display:none"><path class="primary"/><path class="primary"/><path class="primary" style="mix-blend-mode:multiply"/><path class="primary"/><path class="primary"/><path class="primary" style="mix-blend-mode:multiply"/></g><g id="e" clip-path="url(#n)" style="display:block"><path class="primary" style="display:none"/><g style="display:none"><path class="primary"/><path class="primary" style="mix-blend-mode:multiply"/></g><path class="primary" style="display:none"/><g style="display:none"><path class="primary"/><path class="primary" style="mix-blend-mode:multiply"/></g><g fill="#FFC638" style="display:block"><path d="M324.969 109.051c0 15.453-12.547 28-28 28h-181c-15.453 0-28-12.547-28-28s12.547-28 28-28h181c15.453 0 28 12.547 28 28z" class="primary"/><path d="M270.953 165.012c0 15.453-12.547 28-28 28h-181c-15.453 0-28-12.547-28-28s12.547-28 28-28h181c15.453 0 28 12.547 28 28z" class="primary"/><path fill-opacity=".5" d="M118.5 0c0 15.453-12.547 28-28 28h-181c-15.453 0-28-12.547-28-28s12.547-28 28-28h181c15.453 0 28 12.547 28 28z" class="primary" style="mix-blend-mode:multiply" transform="translate(152.453 165.012)"/><path d="M324.002 220.895c0 15.453-12.547 28-28 28h-181c-15.453 0-28-12.547-28-28s12.547-28 28-28h181c15.453 0 28 12.547 28 28zM299 277c0 15.453-12.547 28-28 28H90c-15.453 0-28-12.547-28-28s12.547-28 28-28h181c15.453 0 28 12.547 28 28z" class="primary"/><path fill-opacity=".5" d="M118.5 0c0 15.453-12.547 28-28 28h-181c-15.453 0-28-12.547-28-28s12.547-28 28-28h181c15.453 0 28 12.547 28 28z" class="primary" style="mix-blend-mode:multiply" transform="translate(180.5 277)"/></g><g style="display:none"><path class="primary"/><path class="primary"/><path class="primary" style="mix-blend-mode:multiply"/><path class="primary"/><path class="primary"/><path class="primary" style="mix-blend-mode:multiply"/></g></g><g id="f" clip-path="url(#o)" style="display:none"><path class="primary"/><path class="primary" style="mix-blend-mode:multiply"/></g><g id="g" style="display:none"><path class="primary"/><path class="primary"/><path class="primary" style="mix-blend-mode:multiply"/><path class="primary"/><path class="primary"/><path class="primary" style="mix-blend-mode:multiply"/></g><g id="j" style="display:none"><path class="primary"/><path class="primary"/><path class="primary" style="mix-blend-mode:multiply"/><path class="primary"/><path class="primary"/><path class="primary" style="mix-blend-mode:multiply"/></g><g id="k" clip-path="url(#p)" style="display:none"><path class="primary"/><path class="primary" style="mix-blend-mode:multiply"/></g><g id="l" style="display:none"><path class="primary"/><path class="primary"/><path class="primary" style="mix-blend-mode:multiply"/><path class="primary"/><path class="primary"/><path class="primary" style="mix-blend-mode:multiply"/></g><filter id="c" width="100%" height="100%" x="0%" y="0%" filterUnits="objectBoundingBox"><feComponentTransfer in="SourceGraphic"><feFuncA tableValues="1.0 0.0" type="table"/></feComponentTransfer></filter><filter id="h" width="100%" height="100%" x="0%" y="0%" filterUnits="objectBoundingBox"><feComponentTransfer in="SourceGraphic"><feFuncA tableValues="1.0 0.0" type="table"/></feComponentTransfer></filter><path id="d" fill="red" d="m-77.5-147-64 43.5 220 246 51-51-207-238.5z" style="display:block" transform="translate(275.5 254.25)"/><path id="i" style="display:none"/></defs><g clip-path="url(#q)"><g clip-path="url(#r)" style="display:none"><g style="display:none"><path class="primary"/><path class="primary"/><path class="primary" style="mix-blend-mode:multiply"/><path class="primary"/><path class="primary"/><path class="primary" style="mix-blend-mode:multiply"/></g><g mask="url(#s)" style="mix-blend-mode:multiply;display:none"><path class="primary"/></g><g clip-path="url(#t)" style="display:none"><path class="primary"/><path class="primary" style="mix-blend-mode:multiply"/></g><g mask="url(#u)" style="display:none"><path class="primary"/></g><g clip-path="url(#v)" style="display:none"><path fill="none" class="secondary" style="display:none"/></g></g><g clip-path="url(#w)" style="display:none"><g style="display:none"><path class="primary"/><path class="primary"/><path class="primary" style="mix-blend-mode:multiply"/><path class="primary"/><path class="primary"/><path class="primary" style="mix-blend-mode:multiply"/></g><g mask="url(#x)" style="mix-blend-mode:multiply;display:none"><path class="primary"/></g><path class="primary" style="display:none"/><g mask="url(#y)" style="display:none"><path class="primary"/><path class="primary" style="mix-blend-mode:multiply"/></g><g clip-path="url(#z)" style="display:none"><path fill="none" class="secondary" style="display:none"/></g><g mask="url(#A)" style="mix-blend-mode:multiply;display:none"><path class="primary"/></g><g clip-path="url(#B)" style="display:none"><path class="primary"/><path class="primary" style="mix-blend-mode:multiply"/></g><g mask="url(#C)" style="display:none"><path class="primary"/></g><g clip-path="url(#D)" style="display:none"><path fill="none" class="secondary" style="display:none"/></g></g><g clip-path="url(#E)" style="display:block"><g clip-path="url(#F)" style="display:block"><path class="primary" style="display:none"/><g style="display:none"><path class="primary"/><path class="primary" style="mix-blend-mode:multiply"/></g><path class="primary" style="display:none"/><g style="display:none"><path class="primary"/><path class="primary" style="mix-blend-mode:multiply"/></g><g fill="#FFC638" style="display:block"><path d="M324.969 109.051c0 15.453-12.547 28-28 28h-181c-15.453 0-28-12.547-28-28s12.547-28 28-28h181c15.453 0 28 12.547 28 28z" class="primary"/><path d="M270.953 165.012c0 15.453-12.547 28-28 28h-181c-15.453 0-28-12.547-28-28s12.547-28 28-28h181c15.453 0 28 12.547 28 28z" class="primary"/><path fill-opacity=".5" d="M118.5 0c0 15.453-12.547 28-28 28h-181c-15.453 0-28-12.547-28-28s12.547-28 28-28h181c15.453 0 28 12.547 28 28z" class="primary" style="mix-blend-mode:multiply" transform="translate(152.453 165.012)"/><path d="M324.002 220.895c0 15.453-12.547 28-28 28h-181c-15.453 0-28-12.547-28-28s12.547-28 28-28h181c15.453 0 28 12.547 28 28zM299 277c0 15.453-12.547 28-28 28H90c-15.453 0-28-12.547-28-28s12.547-28 28-28h181c15.453 0 28 12.547 28 28z" class="primary"/><path fill-opacity=".5" d="M118.5 0c0 15.453-12.547 28-28 28h-181c-15.453 0-28-12.547-28-28s12.547-28 28-28h181c15.453 0 28 12.547 28 28z" class="primary" style="mix-blend-mode:multiply" transform="translate(180.5 277)"/></g><g style="display:none"><path class="primary"/><path class="primary"/><path class="primary" style="mix-blend-mode:multiply"/><path class="primary"/><path class="primary"/><path class="primary" style="mix-blend-mode:multiply"/></g></g><g mask="url(#G)" opacity=".5" style="mix-blend-mode:multiply;display:block"><path fill="#FFC638" d="M365.56 224.746a110.704 110.704 0 0 0-.098-4.423c-2.42-57.109-49.327-115.032-118.902-113.307-79.86 1.98-120.61 69.48-120.17 123.16 1.31 35.82 26.819 117.265 124.459 115.665 66.851-1.095 114.838-53.585 114.711-121.095z" class="primary" opacity="1"/></g><path fill="#FFC638" d="M119.26-.054a99.213 99.213 0 0 0-.128-4.101C116.383-57.306 71.071-119.022.26-117.784c-82.171 1.437-120.61 69.48-120.17 123.16 1.31 35.82 26.836 113.258 124.459 115.665C71.65 122.696 119.9 62.446 119.26-.054z" class="primary" style="display:block" transform="translate(274.4 250.65)"/><g fill="#FFC638" mask="url(#H)" style="display:block"><path d="M393.66 250.596a99.213 99.213 0 0 0-.128-4.101c-2.749-53.151-48.061-114.867-118.872-113.629-82.171 1.437-120.61 69.48-120.17 123.16 1.31 35.82 26.836 113.258 124.459 115.665 67.101 1.655 115.351-58.595 114.711-121.095z" class="primary"/><path fill-opacity=".5" d="M119.26-.054a99.213 99.213 0 0 0-.128-4.101C116.383-57.306 71.071-119.022.26-117.784c-82.171 1.437-120.61 69.48-120.17 123.16 1.31 35.82 26.836 113.258 124.459 115.665C71.65 122.696 119.9 62.446 119.26-.054z" class="primary" style="mix-blend-mode:multiply" transform="translate(274.4 250.65)"/></g><g clip-path="url(#I)" style="display:block" transform="translate(137.5 115.813)"><path fill="none" stroke="#B16836" stroke-linecap="round" stroke-linejoin="round" stroke-width="7" d="M0 84.2c46.502 0 84.2-37.698 84.2-84.2S46.502-84.2 0-84.2-84.2-46.502-84.2 0-46.502 84.2 0 84.2z" class="secondary" style="display:block" transform="translate(136 136)"/></g></g><g clip-path="url(#J)" style="display:none"><g clip-path="url(#K)" style="display:none"><g style="display:none"><path class="primary"/><path class="primary" style="mix-blend-mode:multiply"/></g><g style="display:none"><path class="primary"/><path class="primary" style="mix-blend-mode:multiply"/></g><g clip-path="url(#L)" style="display:none"><g clip-path="url(#M)" style="display:none"><g clip-path="url(#N)" style="display:none"><path class="primary"/><path class="primary" style="mix-blend-mode:multiply"/></g><g clip-path="url(#O)" style="display:none"><path class="primary"/><path class="primary" style="mix-blend-mode:multiply"/></g><path class="primary" style="display:none"/><g clip-path="url(#P)" style="display:none"><path fill="none" class="secondary" style="display:none"/></g><g clip-path="url(#Q)" style="display:none"><path fill="none" class="secondary" style="display:none"/></g><g clip-path="url(#R)" style="display:none"><path fill="none" class="secondary" style="display:none"/></g><g clip-path="url(#S)" style="display:none"><path fill="none" class="secondary" style="display:none"/></g></g><g clip-path="url(#T)" style="display:none"><path class="primary"/><path class="primary" style="mix-blend-mode:multiply"/></g><g clip-path="url(#U)" style="display:none"><path fill="none" class="secondary" style="display:none"/></g></g><g clip-path="url(#V)" style="display:none"><path class="primary"/><path class="primary" style="mix-blend-mode:multiply"/></g><path class="primary" style="display:none"/><g clip-path="url(#W)" style="display:none"><path fill="none" class="secondary" style="display:none"/></g></g><g style="display:none"><path class="primary"/><path class="primary"/><path class="primary" style="mix-blend-mode:multiply"/><path class="primary"/><path class="primary"/><path class="primary" style="mix-blend-mode:multiply"/></g><g mask="url(#X)" style="mix-blend-mode:multiply;display:none"><path class="primary"/></g><g clip-path="url(#Y)" style="display:none"><path class="primary"/><path class="primary" style="mix-blend-mode:multiply"/></g><g mask="url(#Z)" style="display:none"><path class="primary"/></g><g clip-path="url(#aa)" style="display:none"><path fill="none" class="secondary" style="display:none"/></g></g></g></svg>